<svg version="1.1" id="Layer_1" xmlns="http://www.w3.org/2000/svg" xmlns:xlink="http://www.w3.org/1999/xlink" x="0px" y="0px"
	 width="100%" viewBox="0 0 1024 1024" enable-background="new 0 0 1024 1024" xml:space="preserve">
<path fill="#000000" opacity="1.000000" stroke="none" 
	d="
M655.516479,612.495605 
	C653.663879,614.885986 652.331726,617.351685 650.336060,619.027039 
	C645.487427,623.097534 644.815063,628.618896 644.397095,634.258606 
	C643.007568,653.009155 641.774292,671.771545 640.331116,690.517822 
	C639.946228,695.517883 641.047668,698.964905 645.628296,702.160828 
	C657.871094,710.702271 662.010254,725.479980 656.825562,740.395081 
	C655.480774,744.263916 656.297302,747.070618 657.725281,750.664856 
	C662.135071,761.764221 665.394836,773.308899 663.370117,785.411926 
	C662.638916,789.782715 663.564880,791.911316 667.453247,793.974976 
	C694.112244,808.123169 721.527710,820.636108 749.288086,832.426453 
	C760.018066,836.983826 770.757996,841.517883 781.468628,846.120300 
	C782.915405,846.742004 784.686462,846.995422 786.003784,849.736328 
	C768.645874,847.236694 752.416260,843.023804 736.287781,838.399231 
	C720.179810,833.780518 704.245544,828.603760 687.401184,822.037903 
	C696.185242,842.204956 695.778687,861.900024 691.086304,881.690491 
	C688.483276,892.669373 685.076538,903.429688 679.339905,913.440735 
	C678.342407,907.890930 679.772095,902.481323 680.235474,897.067871 
	C681.843933,878.279968 683.165527,859.557373 677.671875,841.081848 
	C673.603638,827.400146 665.150574,817.030273 654.039551,808.483765 
	C651.840149,806.791992 650.038330,806.502625 647.930298,808.426453 
	C647.210083,809.083801 646.268860,809.727783 645.341980,809.893982 
	C637.317200,811.332886 634.316345,816.973816 632.408630,824.146729 
	C631.602844,827.176270 631.805176,828.994812 633.978577,831.148071 
	C649.881104,846.903137 659.726318,866.173401 666.171204,887.355042 
	C666.611755,888.803040 667.811462,890.359253 666.509827,892.097534 
	C664.121948,891.199402 663.810364,888.818298 662.832886,887.003296 
	C652.180176,867.224243 638.301208,850.199768 620.299683,836.612488 
	C617.447632,834.459839 614.544556,834.495422 611.140869,834.247925 
	C603.795532,833.713867 596.944214,834.475525 590.122864,837.136719 
	C588.417725,837.801941 586.232361,837.236145 583.636963,837.880798 
	C616.942505,861.109741 639.395020,891.092407 644.364929,932.439331 
	C621.871887,884.612915 585.390137,852.290344 536.430908,834.518250 
	C535.647034,830.974915 538.842468,829.668579 539.010071,826.468506 
	C532.074951,825.453979 525.072144,824.556152 518.113953,823.391357 
	C467.869080,814.980164 422.251007,796.130310 382.867310,763.271484 
	C382.099762,762.631042 381.326111,761.997070 380.577179,761.335327 
	C373.821411,755.366577 373.788086,755.317566 366.315796,760.789062 
	C357.042755,767.579285 347.297028,773.630310 336.144958,779.886169 
	C446.411926,822.924500 546.426575,882.183105 641.947266,951.074402 
	C638.944275,952.169373 637.491638,950.536804 635.950439,949.718323 
	C592.404907,926.591614 548.975464,903.244385 505.327667,880.312683 
	C458.565704,855.744995 410.912170,833.023865 362.093445,812.800903 
	C345.784851,806.045044 329.289612,799.789856 312.474609,794.382019 
	C308.962250,793.252380 305.884399,793.286438 302.374695,794.673157 
	C279.572144,803.682678 255.859161,809.776001 232.243103,816.163696 
	C231.308167,816.416687 230.319138,816.637878 228.959381,815.325378 
	C234.034882,811.163391 238.969635,807.100525 243.921906,803.059021 
	C256.795380,792.553284 268.333862,780.878052 276.344086,766.107117 
	C283.824402,752.313416 285.875214,738.018860 281.226807,722.744263 
	C276.656921,707.727661 275.446716,692.418762 278.963470,676.914307 
	C283.744049,655.837952 296.369720,640.619568 314.207001,629.197815 
	C328.655975,619.945618 344.643890,614.242310 360.756775,608.799011 
	C363.062714,608.020081 365.656281,607.777588 367.758423,605.388062 
	C362.958954,596.759155 358.208923,588.021851 353.273712,579.390381 
	C344.912476,564.766907 337.262878,549.787903 330.893341,534.194946 
	C329.365631,530.455078 327.903046,529.728821 323.936615,531.137878 
	C282.094482,546.001709 239.350754,515.328735 239.525543,470.939941 
	C239.580688,456.931366 244.109116,444.797150 253.261459,434.422455 
	C255.825531,431.515900 255.574478,429.892700 253.309982,426.907440 
	C239.805222,409.104126 233.408234,389.290222 238.488312,366.951019 
	C243.685837,344.095459 259.650726,330.119629 283.528137,327.126740 
	C287.157135,326.671875 288.472565,325.739777 288.863678,321.825348 
	C294.801575,262.394928 313.447876,207.723236 351.320892,160.771973 
	C386.962982,116.586388 431.955170,85.993896 488.388824,76.603828 
	C571.144043,62.834084 640.239258,87.728859 690.729248,156.451752 
	C714.216248,188.420471 727.397705,225.344849 736.303650,263.815918 
	C740.776428,283.137268 743.263977,302.748199 745.090393,322.452484 
	C745.407349,325.871521 746.664856,326.907684 749.997620,327.032990 
	C785.974854,328.385559 803.661194,359.458374 799.661072,389.253906 
	C797.766296,403.367676 792.574768,415.891724 783.905457,427.002899 
	C781.522705,430.056854 781.540161,431.913391 784.145264,434.978912 
	C802.140686,456.154602 801.852844,488.083008 783.743164,511.080414 
	C767.265442,532.005371 740.427307,540.218872 714.724304,531.770203 
	C710.231140,530.293274 707.980225,530.965637 705.414917,534.895386 
	C699.298340,544.265259 691.731689,552.507324 683.749451,560.335632 
	C681.920715,562.129150 680.470398,564.008362 679.777222,566.528015 
	C675.105347,583.508240 666.450500,598.405029 655.516479,612.495605 
M645.260315,238.242889 
	C636.205505,230.184616 625.772705,225.013351 613.759949,223.068878 
	C599.463623,220.754791 585.554199,222.940659 571.817627,226.721939 
	C544.996277,234.105148 518.138855,235.490707 490.968811,228.413574 
	C476.481750,224.640030 461.822021,221.684204 446.650452,222.152161 
	C419.363098,222.993805 396.055908,239.234070 386.135101,264.590027 
	C380.528625,278.919189 378.890106,293.986206 378.440796,309.124725 
	C377.877350,328.108856 374.967102,346.509125 368.165222,364.293823 
	C364.717377,373.308899 361.429504,382.406189 358.589325,391.626495 
	C355.999237,400.034851 353.329132,408.609863 354.404053,417.568298 
	C355.532257,426.970825 356.967926,436.357208 358.764923,445.654846 
	C364.505402,475.355591 370.546875,504.998047 376.331604,534.690369 
	C380.012787,553.585327 384.489838,572.245789 396.090454,588.078125 
	C420.594543,621.521057 450.191467,649.973389 485.976929,670.747498 
	C517.468933,689.029175 549.798523,687.734924 579.788269,665.648682 
	C604.831970,647.205200 624.877808,623.782532 643.705505,599.258423 
	C655.273804,584.190063 662.815430,567.271423 666.637024,548.751465 
	C671.504944,525.160522 675.909302,501.474152 680.737427,477.874725 
	C684.603394,458.978790 688.298584,440.034637 690.413391,420.879700 
	C692.380737,403.060638 686.320557,386.357147 681.167847,369.667450 
	C676.501709,354.553802 671.735474,339.486145 670.713501,323.554840 
	C669.915039,311.107697 669.489563,298.631561 667.678589,286.264740 
	C665.042297,268.261932 659.663574,251.535736 645.260315,238.242889 
M331.465088,402.694489 
	C329.965759,407.027130 327.514374,410.851318 324.348602,414.051788 
	C316.456818,422.030151 306.944550,425.886475 295.763672,423.050293 
	C285.136780,420.354614 278.709656,413.134033 276.157104,402.489288 
	C272.192200,385.954376 284.122772,370.638733 300.133118,371.692352 
	C308.083862,372.215607 314.829834,378.478973 316.078186,386.496887 
	C317.153839,393.405823 312.521912,401.220459 305.922791,403.675140 
	C303.168488,404.699677 300.641479,404.712036 298.857086,401.978790 
	C297.067535,399.237732 297.209412,396.655304 299.822662,394.424377 
	C300.582153,393.776001 301.315430,393.096039 302.044586,392.413330 
	C303.846283,390.726379 304.278687,388.599731 303.262024,386.484650 
	C302.136414,384.142853 299.925171,383.244873 297.396912,383.670959 
	C295.427551,384.002808 293.483215,384.651703 292.043274,386.167938 
	C287.640961,390.803467 287.306274,396.275604 289.172424,401.990845 
	C290.953583,407.445618 294.875977,410.418243 300.639496,410.888458 
	C308.857391,411.558868 315.943390,407.208710 319.281372,399.432404 
	C327.083649,381.255920 315.824310,355.753754 297.012909,348.994812 
	C281.798462,343.528259 266.619507,349.871338 259.990295,364.614014 
	C256.776642,371.760803 255.958435,379.230377 257.180023,387.037994 
	C260.482605,408.145813 271.191284,423.847656 291.497192,431.216461 
	C310.675079,438.175903 327.035858,431.438995 341.170105,417.901855 
	C342.529663,416.599701 343.606812,415.327698 343.673462,413.256653 
	C344.235687,395.788239 348.569336,379.083771 354.002991,362.596313 
	C358.912231,347.700073 362.599915,332.627716 363.076263,316.761383 
	C363.509674,302.325348 364.209625,287.839386 367.651550,273.666260 
	C376.426971,237.531021 398.499756,215.092789 435.365875,208.140167 
	C453.287506,204.760300 470.894470,207.920990 488.189972,212.440063 
	C512.315369,218.743683 536.316162,219.906418 560.723938,213.859283 
	C576.808289,209.874298 592.901978,205.590286 609.920593,207.555939 
	C637.136230,210.699356 658.025757,223.181808 671.348145,247.433640 
	C681.659912,266.204926 684.215881,286.931152 685.016663,307.754333 
	C685.751831,326.867889 688.899170,345.418976 693.858459,363.781494 
	C698.774170,381.982635 702.590332,400.362640 702.051575,419.364441 
	C701.964050,422.450592 703.557312,424.303589 705.811890,425.947601 
	C715.517029,433.024536 726.483521,435.403839 738.047607,433.163055 
	C765.893677,427.767303 784.365479,400.505402 779.628845,372.510986 
	C775.898438,350.464142 752.406738,340.132904 733.666443,352.338104 
	C723.863281,358.722687 718.790649,368.177460 716.281738,379.322327 
	C714.687866,386.402496 715.229614,393.230286 718.223267,399.812347 
	C721.926147,407.953979 729.501770,412.067200 738.103943,410.762970 
	C744.347473,409.816345 748.132751,405.482086 749.353333,397.882233 
	C750.175903,392.760651 747.196960,386.378693 742.924561,384.241882 
	C739.710327,382.634338 736.615601,382.878479 734.444641,385.860779 
	C732.219055,388.918213 733.639526,391.547943 736.306641,393.608063 
	C737.770325,394.738647 739.293945,395.694519 739.336365,397.871613 
	C739.381653,400.200745 738.809814,402.183105 736.727478,403.443298 
	C734.117065,405.023071 731.580200,404.340912 729.166870,402.949341 
	C723.304993,399.569122 720.327148,392.038422 721.881836,384.674042 
	C723.271912,378.089111 729.942322,372.234283 736.707642,371.660950 
	C753.277222,370.256744 765.268066,386.197357 760.718567,403.584320 
	C757.863464,414.495422 750.832886,421.178925 739.850769,423.301147 
	C727.143921,425.756592 717.348022,420.559662 710.079163,410.437195 
	C696.431030,391.431183 703.593811,362.070221 719.980896,347.212891 
	C724.026550,343.544800 725.025024,339.910736 724.570923,335.000824 
	C723.208313,320.267822 722.262573,305.510742 719.765076,290.881104 
	C713.670654,255.181778 703.355408,220.940094 685.865173,189.053192 
	C671.369629,162.626053 652.703369,139.768723 627.124268,123.465309 
	C581.616394,94.459900 532.317566,86.977615 480.108612,100.072861 
	C435.569641,111.244308 399.573334,136.139923 370.558899,171.257385 
	C331.478943,218.557602 313.101959,273.768250 309.296295,334.404053 
	C309.029205,338.659241 310.398956,341.368073 313.827545,344.038818 
	C330.863190,357.309052 338.297180,381.839203 331.465088,402.694489 
M489.388611,805.969666 
	C506.559814,811.939453 524.146790,816.284424 542.037231,819.444275 
	C544.258057,819.836548 546.301941,819.919922 547.770325,817.652100 
	C550.326233,813.704895 552.595154,809.606079 553.462952,804.963013 
	C555.211487,795.606506 551.272522,790.657288 541.859619,789.196472 
	C533.324890,787.871887 524.851318,786.159851 516.475037,783.948303 
	C487.384399,776.268005 460.743713,763.051514 434.853241,748.111755 
	C433.814636,747.512451 432.274109,747.159058 432.641479,745.242737 
	C435.147400,744.739868 437.127838,746.198669 439.218689,747.026184 
	C467.919525,758.385742 497.346893,767.203247 527.732788,772.806396 
	C531.324707,773.468750 533.406006,772.718384 535.732666,769.884827 
	C544.957947,758.649780 560.006836,754.441467 573.628235,759.231812 
	C577.555725,760.613098 580.976929,761.470703 584.904114,759.151245 
	C587.455444,757.644348 590.639221,757.223267 593.659424,757.875671 
	C604.053406,760.121155 613.789368,763.886658 621.671448,771.302124 
	C624.294495,773.769836 626.409058,776.778137 628.874939,779.679199 
	C633.441284,777.119019 636.378174,773.274780 639.505554,769.658386 
	C645.742310,762.446228 645.715149,761.099426 639.273621,753.047302 
	C632.670227,757.086487 626.613892,762.367493 618.443298,764.106567 
	C618.660767,761.399597 620.432495,760.508301 621.729004,759.294739 
	C627.821838,753.591858 633.731628,747.719055 638.378540,740.733704 
	C642.863892,733.991211 643.102844,724.695251 639.141052,719.036438 
	C637.573059,716.796692 636.080505,715.850098 633.450684,717.828979 
	C620.945923,727.238464 606.339294,731.094116 591.172913,733.030884 
	C585.795227,733.717590 580.220337,733.961487 574.144714,732.751587 
	C576.506042,730.218079 578.991455,730.361206 581.128174,729.731567 
	C593.807861,725.995056 606.056702,721.370056 616.969299,713.659607 
	C620.210083,711.369873 621.812012,708.807983 621.906006,704.609009 
	C622.155457,693.466980 623.282043,682.343262 623.476501,671.202026 
	C623.601074,664.064453 625.611511,656.959961 624.337585,649.348755 
	C617.661255,655.729858 611.533997,661.854858 605.116821,667.659485 
	C594.214905,677.520691 582.799316,686.737854 569.013611,692.368286 
	C535.282288,706.144958 503.081970,701.728333 472.478577,683.295532 
	C450.656281,670.151550 431.980957,652.994019 413.874481,635.224854 
	C412.671234,634.044067 411.848267,632.250671 408.301117,631.892029 
	C408.301117,642.266785 408.351074,652.231567 408.289856,662.195679 
	C408.188995,678.609436 408.118073,678.669067 421.803162,687.954346 
	C457.395996,712.103882 496.993225,725.245239 539.383728,730.865967 
	C546.153381,731.763550 553.165955,731.012207 559.562683,734.024353 
	C499.125214,738.367004 443.834595,724.425476 395.017548,686.951904 
	C393.053345,691.668823 394.111053,695.695923 397.205017,699.431763 
	C405.012299,708.858826 414.156006,716.827393 423.916321,724.144836 
	C425.547852,725.368042 427.812592,726.059814 428.298309,728.481995 
	C427.149902,729.348206 426.275330,728.534363 425.449585,728.135315 
	C415.074677,723.121460 404.897644,717.714661 396.381927,709.828674 
	C393.032959,706.727295 390.952972,707.273621 388.257904,710.461182 
	C384.628967,714.753235 381.666565,719.405273 380.727264,724.910217 
	C379.759460,730.581909 378.433258,736.594727 383.473053,741.344788 
	C389.047791,746.599060 394.465210,752.048401 400.324982,756.967407 
	C426.558990,778.989746 456.526123,794.324829 489.388611,805.969666 
M346.016541,633.597229 
	C336.337524,637.734192 327.112457,642.661011 318.653351,648.985168 
	C307.333496,657.447876 300.370758,668.642639 297.593018,682.430359 
	C295.303284,693.795715 296.774078,704.966248 300.070129,715.910461 
	C304.436462,730.408508 305.658051,744.894531 301.184845,759.618530 
	C299.513885,765.118774 296.817657,770.198975 294.059631,776.559265 
	C318.930908,767.230408 341.220184,755.952209 360.937164,739.929260 
	C362.054077,739.021545 362.666931,737.980286 362.508118,736.489807 
	C361.028198,722.599609 365.778168,710.657471 374.171570,699.944153 
	C376.042694,697.555786 376.719940,695.088196 376.725800,692.123352 
	C376.741150,684.387329 378.485901,676.622986 384.142975,671.509155 
	C390.157867,666.071838 391.256378,660.048096 390.718506,652.818176 
	C390.484497,649.672302 390.847443,646.485779 390.708099,643.327820 
	C390.611420,641.137268 391.708618,638.681519 389.440918,636.524170 
	C378.445648,640.789490 367.815155,645.905396 357.430664,651.525024 
	C334.435150,663.968872 318.053070,681.908203 311.192871,707.666870 
	C309.420929,714.320129 307.630829,720.968567 305.849060,727.619202 
	C304.460480,721.426758 304.858124,715.443054 305.567596,709.359253 
	C308.188812,686.881775 317.359711,667.988770 334.819183,653.271851 
	C349.242218,641.114502 365.789001,632.601318 382.764893,624.776306 
	C384.859985,623.810547 386.955963,622.846802 389.051575,621.882202 
	C373.918213,622.461182 360.350494,627.981750 346.016541,633.597229 
M343.404602,492.878998 
	C344.655853,490.718140 346.082550,488.637787 347.118713,486.378296 
	C348.826447,482.654358 351.116821,479.185913 350.411499,474.608246 
	C348.487762,462.123108 346.681824,449.622192 345.445618,437.032623 
	C345.035706,432.858002 345.720154,428.181549 342.595947,423.603210 
	C337.464264,431.435242 330.866272,436.905212 322.932556,441.400726 
	C325.352997,444.566742 327.489624,447.088593 329.326843,449.812408 
	C336.894348,461.031555 339.789948,473.151611 335.497620,486.324158 
	C331.620880,498.221222 320.408630,506.541229 308.123779,507.056976 
	C297.791931,507.490753 287.171112,500.258514 282.803314,489.814972 
	C276.002502,473.554138 283.948425,457.410736 299.835114,455.212372 
	C306.987579,454.222626 314.506500,458.322113 317.490723,464.838623 
	C320.486633,471.380646 319.338348,478.261017 314.407074,482.706299 
	C311.938171,484.931885 309.138062,486.756317 306.000244,484.096710 
	C302.983368,481.539673 302.670166,478.610626 305.559082,475.457733 
	C307.296387,473.561646 307.533783,471.152496 305.761475,469.088684 
	C304.050537,467.096375 301.674072,466.845825 299.342987,467.794556 
	C295.377838,469.408264 293.591614,472.680298 293.185486,476.768433 
	C292.287964,485.802277 298.481293,493.853851 306.864502,494.630859 
	C315.265259,495.409485 323.777863,487.801178 324.664276,478.437134 
	C325.999268,464.334595 319.546783,454.115723 308.252533,446.434174 
	C306.688416,445.370392 304.957062,444.917633 303.065979,444.899780 
	C296.023468,444.833282 289.167938,443.636566 282.462860,441.485962 
	C280.581360,440.882477 278.784363,440.458130 276.727966,441.572144 
	C268.865509,445.831451 263.417633,451.958527 261.011292,460.669037 
	C255.559860,480.402161 266.616791,503.470001 285.491913,511.696198 
	C305.669983,520.490234 328.811829,513.154053 343.404602,492.878998 
M752.200562,493.503601 
	C746.683105,502.508179 738.524353,507.291962 728.089417,506.829773 
	C716.962769,506.337006 708.464783,500.849182 703.557678,490.598572 
	C696.390625,475.627380 699.655579,461.782562 708.500793,448.673370 
	C710.221497,446.123199 712.222839,443.762451 714.102112,441.304688 
	C709.713257,438.356506 705.762634,435.702728 701.643311,432.935638 
	C701.178406,433.866180 700.691711,434.423615 700.629761,435.024811 
	C698.703308,453.712006 696.125916,472.311646 693.130737,490.854004 
	C692.856812,492.550110 693.467834,493.678040 694.497009,494.883209 
	C698.411194,499.466827 702.687683,503.624329 707.736816,506.969788 
	C727.629150,520.150208 751.277344,517.723633 766.199219,500.938538 
	C778.991333,486.549164 781.245667,465.451141 771.426025,451.037720 
	C767.946228,445.929993 762.941589,440.338562 757.269836,441.111359 
	C748.331299,442.329254 739.500305,444.979248 730.388916,445.843201 
	C729.635742,445.914612 728.921814,446.598999 728.226990,447.055389 
	C720.218933,452.315613 714.942078,459.497131 712.765991,468.903473 
	C710.062195,480.590912 715.669983,491.688629 725.628235,494.240021 
	C731.326355,495.699951 738.003784,492.798889 741.528687,487.331970 
	C744.855896,482.171539 745.005493,474.951843 741.870544,470.834259 
	C739.230774,467.367126 734.535828,466.021118 731.767639,468.118835 
	C728.244812,470.788513 729.724304,473.562225 731.837280,476.284607 
	C733.999023,479.069885 733.226990,481.669281 730.980164,483.865509 
	C728.471741,486.317474 725.699585,485.689972 723.367554,483.612122 
	C718.654358,479.412659 716.726562,474.130493 718.149414,467.872345 
	C719.829041,460.484772 724.898438,456.547638 732.008789,455.223877 
	C739.786804,453.775879 746.327881,456.637878 750.918091,462.781494 
	C758.008545,472.271301 758.047424,482.491730 752.200562,493.503601 
M565.797668,788.998352 
	C571.253784,802.080322 568.399048,814.363953 561.560669,826.408264 
	C565.112183,828.245605 568.449829,829.488159 571.214966,831.512695 
	C575.731323,834.819458 578.348328,833.035583 580.763245,828.992798 
	C586.345825,819.647217 588.145264,809.514709 587.295166,798.797791 
	C587.042053,795.606323 585.786560,792.488525 586.905212,789.193176 
	C593.800293,802.300537 594.636841,815.897522 589.047180,830.364258 
	C594.306580,829.585510 596.336731,826.297058 597.932434,822.916321 
	C606.967468,803.773926 597.741394,788.366943 587.596436,772.936829 
	C593.316101,775.044128 596.953735,779.562622 600.158691,784.178284 
	C609.810608,798.078735 612.678284,812.943909 604.571655,828.507507 
	C607.198303,830.123108 609.077698,829.704468 610.978088,828.881775 
	C613.520325,827.781067 615.313354,825.952698 616.773560,823.602417 
	C627.221680,806.784485 621.349365,778.658020 604.970215,767.337708 
	C597.734375,762.336853 591.106140,762.170166 583.702759,767.127319 
	C581.839417,768.374939 580.334717,768.117310 578.597229,767.356079 
	C574.137634,765.402222 569.478638,764.020142 564.635010,763.785339 
	C556.587708,763.395325 549.165161,765.359314 541.591309,770.720947 
	C553.574951,772.481995 561.019775,778.465210 565.797668,788.998352 
M352.736633,538.826233 
	C358.408417,551.724487 364.080170,564.622742 369.751953,577.520996 
	C366.002655,567.726074 363.427338,557.636719 361.382141,547.430786 
	C359.556458,538.320312 358.013855,529.141968 356.722260,519.940796 
	C356.152252,515.880188 353.152100,515.153442 350.350769,513.808105 
	C348.516296,512.927124 347.241150,513.610352 345.942139,514.935181 
	C343.565826,517.358643 345.318573,519.581848 346.157990,521.816650 
	C348.205933,527.268921 350.336884,532.690063 352.736633,538.826233 
M633.856934,781.336548 
	C632.754211,782.235718 630.024658,781.926392 631.146606,784.508301 
	C633.429382,789.761475 634.926392,795.282166 636.410156,801.019958 
	C645.349731,793.907593 649.546265,781.707031 645.696045,774.782166 
	C641.971741,776.879456 638.246460,778.977234 633.856934,781.336548 
M692.693237,525.216125 
	C696.279053,518.493469 696.279053,518.493469 690.268738,515.201477 
	C689.603516,520.402405 687.613098,525.271606 688.548706,530.851440 
	C690.725647,529.445374 691.281189,527.455811 692.693237,525.216125 
M388.080261,606.173706 
	C386.059113,603.561218 384.037933,600.948730 382.016785,598.336243 
	C383.894897,602.726196 385.943817,606.947693 390.301666,609.437866 
	C389.703491,608.512024 389.105347,607.586121 388.080261,606.173706 
z"/>
<path fill="#000000" opacity="1.000000" stroke="none" 
	d="
M478.274170,443.658203 
	C472.853271,429.121490 467.577332,414.946320 462.301361,400.771179 
	C462.033325,400.790588 461.765289,400.810028 461.497253,400.829468 
	C461.413300,402.374542 461.255432,403.919678 461.256195,405.464752 
	C461.277222,447.625824 461.367523,489.786987 461.265198,531.947754 
	C461.255188,536.077209 462.218658,539.039795 466.044952,540.846985 
	C467.087128,541.339294 467.987671,542.131165 468.954132,542.784119 
	C481.512726,551.269470 481.454346,551.264343 480.162415,566.277710 
	C479.909058,569.221802 478.737244,570.339172 475.812286,570.332153 
	C452.482239,570.276062 429.151917,570.284790 405.821838,570.335938 
	C402.855713,570.342407 401.580414,569.128967 401.654327,566.159729 
	C401.753845,562.162903 401.782928,558.157166 401.626587,554.163635 
	C401.522308,551.500000 402.542297,549.688354 404.831879,548.481384 
	C404.978149,548.404236 405.094818,548.266174 405.244690,548.201294 
	C417.398895,542.938477 420.127899,533.801392 419.964111,520.815552 
	C419.203369,460.499725 419.594116,400.168732 419.751648,339.843628 
	C419.763153,335.432709 418.498535,332.494843 414.642242,330.577942 
	C414.050934,330.284027 413.538940,329.832672 412.983246,329.464722 
	C400.500275,321.199249 400.563690,321.204285 401.653687,306.526581 
	C401.858093,303.774170 402.888367,302.675507 405.591278,302.680420 
	C424.755310,302.715149 443.919800,302.754242 463.083160,302.633392 
	C466.377716,302.612640 467.269653,304.559387 468.184692,307.020386 
	C476.423584,329.178680 484.741241,351.307739 492.962311,373.472595 
	C502.398163,398.912659 511.755798,424.381744 521.159302,449.833832 
	C521.898743,451.835419 522.390076,453.983276 524.339233,455.716705 
	C526.181641,454.093567 526.721008,451.794769 527.479980,449.714600 
	C544.256348,403.735138 560.972290,357.733612 577.740784,311.751282 
	C581.717773,300.845703 579.756958,302.776398 590.521545,302.699707 
	C606.851929,302.583344 623.185913,302.824677 639.513550,302.583954 
	C644.170959,302.515259 645.473328,304.091766 645.436462,308.602905 
	C645.327454,321.960754 645.640869,322.182953 634.240784,329.645111 
	C629.659058,332.644196 627.971252,335.988678 627.986572,341.460236 
	C628.161987,404.118164 628.158020,466.776978 627.974854,529.434937 
	C627.957642,535.324890 629.383728,539.146729 634.670410,542.472717 
	C647.506042,550.548035 647.245422,550.858887 646.294434,566.239075 
	C646.111816,569.192566 645.036865,570.384460 642.075562,570.376953 
	C618.578796,570.317139 595.081909,570.316711 571.585083,570.348938 
	C568.923218,570.352600 567.448364,569.431091 567.658997,566.584656 
	C567.683472,566.253723 567.654114,565.918396 567.643311,565.585327 
	C567.143127,550.160828 567.029846,549.979309 580.331482,541.687073 
	C584.738831,538.939514 586.104309,535.769348 586.080017,530.710693 
	C585.884338,490.050659 585.970398,449.389252 585.970398,408.728241 
	C585.970398,406.138550 585.970398,403.548859 585.970398,400.959167 
	C585.642944,400.920074 585.315552,400.880981 584.988098,400.841888 
	C580.445557,412.921112 575.824219,424.971375 571.376587,437.085449 
	C561.278198,464.590729 551.221741,492.111694 541.275330,519.672180 
	C540.101257,522.925537 538.634827,524.568726 534.877563,524.404846 
	C527.891602,524.100037 520.874878,524.104736 513.887329,524.386169 
	C509.899628,524.546814 507.881531,523.074585 506.513367,519.362000 
	C497.245148,494.212372 487.804230,469.126343 478.274170,443.658203 
z"/>
</svg>