<svg version="1.1" id="Layer_1" xmlns="http://www.w3.org/2000/svg" xmlns:xlink="http://www.w3.org/1999/xlink" x="0px" y="0px"
	 width="100%" viewBox="0 0 1024 1024" enable-background="new 0 0 1024 1024" xml:space="preserve">
<path fill="#000000" opacity="1.000000" stroke="none" 
	d="
M417.615234,582.530334 
	C400.812836,624.721008 374.148224,658.709900 337.476105,684.826721 
	C323.892975,694.500244 315.203125,699.068970 310.661743,699.129028 
	C310.625854,697.073181 312.421967,696.502441 313.607666,695.459717 
	C320.986725,688.970642 328.638763,682.757812 334.541382,674.775208 
	C342.539307,663.958984 345.384521,651.874390 344.093658,638.520935 
	C342.897247,626.145081 340.563202,613.704895 343.750885,601.301636 
	C344.895599,596.847656 346.616394,592.541748 348.228912,587.704468 
	C338.282135,586.297302 329.850586,590.028748 321.571655,594.386047 
	C319.658630,590.790649 321.263214,587.748718 321.742310,584.761841 
	C324.362030,568.428711 330.062958,553.245972 339.456818,539.577698 
	C342.870789,534.610229 346.972290,530.257080 352.569519,527.542480 
	C360.086945,523.896606 367.342834,524.164185 374.431396,528.606689 
	C375.666504,529.380798 376.903107,530.152466 379.201324,531.589600 
	C380.090607,513.795654 375.129089,497.678772 373.421570,480.675232 
	C367.943054,481.462067 363.054901,482.199677 358.156067,482.858276 
	C352.685333,483.593750 347.183960,483.763580 341.725464,482.899475 
	C320.050781,479.468170 314.153778,455.214050 320.601318,439.487946 
	C324.428802,430.152466 331.288971,423.587982 340.008362,417.907288 
	C333.491852,415.338501 327.434631,412.717682 323.924561,406.541595 
	C315.907928,392.436066 318.975189,376.439972 332.880157,366.286926 
	C339.332764,361.575439 342.779785,355.776550 344.657196,348.520966 
	C348.905731,332.101929 352.722961,315.560913 357.391510,299.263123 
	C367.222778,264.942474 388.861023,239.531998 418.517914,220.569168 
	C443.328186,204.705292 470.782166,196.936432 499.977905,194.601273 
	C535.916565,191.726791 571.085388,196.056183 605.655396,205.755585 
	C619.713989,209.700043 632.882019,215.696503 644.071167,225.374695 
	C657.348145,236.858810 663.802368,251.768219 664.092224,268.978668 
	C664.270264,279.549286 666.937134,288.914368 672.202209,297.873749 
	C679.602600,310.466644 685.183533,323.793732 686.794739,338.460022 
	C687.926025,348.758484 688.143433,359.157227 685.992065,369.310638 
	C683.289001,382.067352 686.293518,392.525635 696.078064,401.297241 
	C703.527161,407.975250 710.505249,415.048340 713.629700,425.123016 
	C720.032654,445.769257 708.190674,466.424377 687.661743,469.888763 
	C682.194397,470.811401 677.173279,469.015381 671.828491,466.955048 
	C669.459595,472.925049 669.430969,479.140411 668.554077,485.092804 
	C663.241150,521.156982 650.736938,554.422119 632.595703,586.056824 
	C621.970764,604.584656 606.623596,611.986694 586.531372,613.383423 
	C552.714600,615.734436 523.680847,603.226807 496.206207,585.337646 
	C466.647552,566.091553 449.140717,538.415100 439.641968,505.063141 
	C439.231720,503.622620 438.590240,502.234344 438.309296,500.773163 
	C437.432953,496.215179 435.580292,494.561554 430.214203,494.936737 
	C417.602570,495.818481 403.863831,481.998352 402.703400,468.498505 
	C402.578888,467.050110 403.059937,465.488770 401.644836,463.665466 
	C396.033295,466.077637 390.278015,468.539093 384.534241,471.027100 
	C382.373474,471.963043 382.550232,473.600830 382.896942,475.616302 
	C385.432892,490.358063 388.285767,505.048859 389.635803,519.979370 
	C390.324097,527.591492 389.043762,534.866150 387.004761,542.114197 
	C385.320282,548.101990 386.232208,549.470154 392.217072,550.785889 
	C395.998260,551.617004 399.785309,551.921204 403.631409,551.461792 
	C404.904236,551.309692 406.284515,550.711121 407.528259,552.786316 
	C401.233215,557.355774 394.302002,559.273987 386.657166,558.091675 
	C380.178070,557.089539 376.749695,552.794800 374.859009,546.654358 
	C370.968536,534.019348 360.565491,531.644409 351.503815,541.349121 
	C344.180115,549.192505 340.676117,559.221436 336.739227,568.941711 
	C335.576233,571.813110 334.757935,574.824097 333.616760,578.269104 
	C346.544342,575.615112 358.994934,577.783569 371.100616,576.501465 
	C372.072052,578.294128 371.138214,578.939941 370.379730,579.498413 
	C353.449036,591.964966 350.438812,609.100586 353.605896,628.510071 
	C355.160156,638.035278 356.218292,647.657043 353.008820,658.515381 
	C360.636719,652.258606 365.716919,645.418091 371.201904,639.000610 
	C376.836823,632.407654 381.675049,625.202026 386.373108,617.919067 
	C391.075958,610.628845 394.950775,602.879028 398.946899,595.189209 
	C402.953583,587.479187 406.345642,579.522949 409.210571,571.345459 
	C412.064514,563.199341 414.673126,554.967224 417.396790,546.750244 
	C419.980438,546.352905 420.388855,548.602478 421.314148,549.959351 
	C443.697876,582.783936 471.751862,609.672485 505.553558,630.550110 
	C513.934631,635.726746 522.686829,640.248413 531.920959,643.644714 
	C536.327148,645.265198 538.224792,647.587830 538.224426,652.357056 
	C538.223633,664.162476 542.573303,674.705505 548.671692,685.555969 
	C551.094604,680.833191 552.828491,676.539124 555.799194,672.978333 
	C560.882263,666.885620 566.907715,663.457275 575.069214,665.858948 
	C576.989746,666.424133 578.450134,666.639709 579.708679,664.520325 
	C583.388611,658.323059 589.116760,657.662659 595.400635,659.342163 
	C597.493835,659.901611 598.896545,660.177185 600.584900,658.193970 
	C609.982483,647.155334 616.436340,635.204651 614.050964,620.003845 
	C613.664429,617.540894 614.275024,614.679871 615.979919,612.951416 
	C621.300293,607.557739 626.975708,602.514404 632.335144,597.502075 
	C634.065796,598.244568 634.015686,599.311707 633.921631,600.287964 
	C631.318237,627.302185 640.941467,650.253418 657.456909,670.868713 
	C670.702454,687.402344 687.352478,700.259338 703.751770,713.372864 
	C707.524353,716.389526 711.365723,719.320068 715.144226,722.329468 
	C715.783386,722.838623 716.301331,723.534241 715.824219,724.652771 
	C715.460266,724.679321 714.920959,724.891907 714.572449,724.719421 
	C687.696838,711.408936 663.407288,694.589661 644.797180,670.756775 
	C633.455566,656.232178 626.477295,639.507507 623.864258,621.116699 
	C623.709534,620.028198 624.083496,618.723145 622.855469,617.940979 
	C621.076843,618.076233 620.673218,619.260803 620.801086,620.722046 
	C621.313843,626.583496 620.653259,632.335205 619.492126,638.080383 
	C618.354614,643.708679 615.522705,648.583069 612.612732,653.782532 
	C630.567993,654.932739 641.356689,665.389282 648.667297,680.311951 
	C652.800964,688.749756 652.053894,696.972839 647.120544,705.043335 
	C640.780212,715.415588 641.159241,717.995789 649.210144,727.019470 
	C651.760925,729.878479 654.486694,732.604248 656.815125,735.634705 
	C666.877258,748.730652 669.524841,763.184326 662.630615,778.334595 
	C657.271057,790.112610 656.372620,801.897766 658.663147,814.377991 
	C659.749451,820.296936 658.632141,826.024780 654.135986,831.630676 
	C652.513245,827.722595 654.734863,825.315674 654.927551,822.666748 
	C655.445801,815.543579 653.383545,808.789673 652.516846,801.884644 
	C651.530823,794.028870 652.336060,786.412109 655.587646,779.411865 
	C663.740173,761.860657 658.982727,747.430664 645.915039,734.621033 
	C644.250427,732.989380 642.628540,731.301392 641.116882,729.528687 
	C633.659302,720.783264 632.347595,713.161194 638.496643,703.492004 
	C644.189331,694.540344 644.255127,686.742493 638.060730,678.213684 
	C630.983704,668.469604 623.026062,660.719482 609.825378,661.734253 
	C607.683044,661.898926 605.560608,662.321228 602.753052,662.720581 
	C611.598694,673.670532 616.332825,685.093506 609.051880,699.462280 
	C607.224365,696.584900 608.134644,694.713135 608.413696,692.863220 
	C609.895386,683.042053 603.676941,670.559753 595.312805,666.723267 
	C592.903320,665.618103 590.299072,664.303223 587.788574,666.316772 
	C585.312927,668.302368 585.808899,671.168335 586.405884,673.746216 
	C588.035339,680.782104 592.658997,686.169739 596.777771,691.807495 
	C601.696228,698.539734 606.677490,705.208862 609.216003,713.330200 
	C613.622742,727.428589 610.978271,740.620300 604.267395,753.324951 
	C602.555542,756.565674 601.058350,759.945618 599.079956,763.014954 
	C592.367004,773.429749 593.449341,783.736633 598.839111,794.257507 
	C602.395142,801.198669 606.576538,807.916260 607.850464,815.827454 
	C608.735840,821.325806 608.163452,826.448181 604.807495,831.075195 
	C603.349304,830.276794 603.362122,829.579529 603.566528,828.970337 
	C606.678528,819.697083 603.558594,811.651184 598.711426,803.921387 
	C594.633179,797.417908 589.043640,790.820129 589.156677,783.272522 
	C589.521423,758.922058 574.594055,741.495239 563.254517,722.478699 
	C553.448730,706.034302 542.309143,690.362854 535.856262,672.108704 
	C533.911926,666.608643 532.115417,661.079651 531.535156,655.225281 
	C531.242676,652.273743 530.268799,650.134888 526.915405,648.983521 
	C504.227997,641.193604 484.650330,627.993103 465.970734,613.315125 
	C452.040314,602.368958 439.455963,590.001709 427.744934,576.731445 
	C426.216370,574.999329 424.799530,573.168579 423.039337,571.028992 
	C420.072266,574.993347 419.346161,578.790466 417.615234,582.530334 
M414.296753,458.184723 
	C412.742462,458.777618 411.213196,459.450134 409.628845,459.947235 
	C406.110718,461.051147 405.191559,462.836792 407.334290,466.186523 
	C410.383362,470.953186 412.941589,476.044312 417.416321,479.749664 
	C423.254242,484.583832 429.715210,486.702026 436.817657,483.125488 
	C440.755524,481.142517 442.058044,482.635010 443.265106,486.067627 
	C446.024750,493.915314 449.052155,501.668335 451.878082,509.493286 
	C459.974121,531.911316 470.835327,552.534485 490.209045,567.435059 
	C519.786560,590.183472 551.412903,607.075500 590.620667,602.765320 
	C604.019409,601.292358 614.938904,597.330750 622.284119,584.553650 
	C639.502930,554.601624 653.248901,523.602905 659.405762,489.273224 
	C662.940002,469.566864 666.153809,450.094482 663.835632,430.033051 
	C662.564697,419.034271 663.165161,408.147583 666.565491,397.455231 
	C668.280212,392.063660 669.604675,386.317413 668.512878,380.716583 
	C665.009399,362.744385 664.671509,344.328583 660.611328,326.444366 
	C658.923523,319.009979 655.573730,312.315094 651.575256,305.986481 
	C647.475708,299.497955 643.165710,298.716522 636.845032,302.695435 
	C633.746826,304.645782 630.694153,306.692902 627.777771,308.903168 
	C615.134277,318.485352 601.963196,319.578247 587.459656,312.912231 
	C568.655090,304.269409 548.408447,299.673187 528.612305,294.008667 
	C514.798828,290.056061 501.563812,292.584534 490.916046,303.588043 
	C481.398560,313.423492 481.380402,325.387909 482.809021,337.728394 
	C483.744171,345.806213 486.180573,353.750458 485.822754,361.923553 
	C485.381897,371.992950 480.063477,380.093323 474.422638,388.084259 
	C467.152985,398.382629 461.277527,409.515137 460.449219,422.347717 
	C459.065247,443.788391 440.575623,461.375061 418.879486,461.130981 
	C417.065369,461.110596 414.138275,461.636353 415.713867,457.872589 
	C423.094696,455.269592 430.218262,452.068939 437.271057,448.690216 
	C443.186218,445.856567 447.015381,441.099701 450.611176,434.789093 
	C439.324280,444.632355 428.830444,445.906677 421.481659,438.818115 
	C417.940125,435.402008 416.275116,430.990967 416.087433,426.259003 
	C415.712189,416.797638 420.582306,410.030426 428.868622,405.289703 
	C425.672485,402.540009 422.888580,403.228455 420.172699,403.841675 
	C408.277405,406.527405 396.951447,410.923126 385.814209,415.755768 
	C376.982330,419.588013 367.807617,422.804108 359.905548,428.529083 
	C351.208618,434.829895 348.615875,447.832489 354.015137,457.719757 
	C359.556976,467.868134 369.117340,471.272064 380.055542,466.906342 
	C396.893066,460.186005 413.213593,452.214203 430.310669,446.125946 
	C431.496613,445.703613 432.789124,444.365082 434.542145,445.997406 
	C428.652893,451.347931 420.928040,453.257812 414.296753,458.184723 
M623.454834,303.946625 
	C627.535522,301.367371 631.446228,298.452820 635.732910,296.279907 
	C644.200378,291.987732 652.258301,294.929932 655.781921,303.743347 
	C659.670349,313.469238 663.475525,323.254517 666.282654,333.369659 
	C669.896423,346.391510 670.220825,360.026855 673.460083,373.101013 
	C675.739929,382.302734 675.247314,391.185944 672.490479,400.133270 
	C670.004761,408.200500 669.495544,416.521545 670.377502,424.857269 
	C671.428650,434.792786 672.743103,444.696991 672.280457,454.721008 
	C672.173523,457.038147 673.498108,458.327484 675.245239,459.532654 
	C683.606567,465.300171 695.634888,462.378387 701.757690,453.032104 
	C709.640320,440.999542 708.855835,427.414368 699.245972,416.626740 
	C694.824768,411.663757 689.734619,407.303345 685.083679,402.536987 
	C677.457336,394.721375 674.862366,385.331543 676.292908,374.560394 
	C677.408569,366.160370 678.876465,357.742188 678.507690,349.236511 
	C677.815979,333.280884 673.346069,318.254883 664.814331,304.851044 
	C657.288818,293.027985 654.193481,280.403412 653.565491,266.633484 
	C653.136353,257.222076 649.979736,248.427002 644.154175,240.717865 
	C635.526367,229.300385 623.653381,222.801468 610.433167,218.602295 
	C574.963684,207.336014 538.593994,203.601059 501.507751,206.109634 
	C477.931458,207.704376 455.485840,213.347656 434.738495,224.802521 
	C400.050415,243.954254 375.845398,271.478485 365.994293,310.707825 
	C362.027618,326.503998 358.386475,342.422028 353.040039,357.853455 
	C352.779877,358.604279 352.384796,359.421936 353.574921,360.264740 
	C363.604492,356.245514 374.150208,353.267731 384.929749,351.157532 
	C391.393005,349.892273 398.004456,349.184906 403.697601,353.297974 
	C406.108643,355.039825 408.044342,355.359009 410.913055,355.120087 
	C415.843872,354.709442 420.914886,352.933899 426.592804,355.052887 
	C423.237762,357.506531 419.983795,358.224487 416.928864,359.399139 
	C410.875763,361.726562 404.676056,363.774261 399.653259,368.151215 
	C397.899841,369.679138 396.884033,371.456421 397.390381,373.861450 
	C397.674042,375.208801 398.516815,375.871033 399.872070,375.796265 
	C402.366913,375.658630 403.581940,373.856750 404.766937,371.992310 
	C406.045166,369.981201 405.756897,367.079315 408.188202,365.574097 
	C410.545654,370.251312 409.967804,375.427032 406.712646,378.976440 
	C404.051544,381.878113 400.748383,383.311035 396.824127,382.309631 
	C393.012024,381.336884 391.191772,378.407166 390.350616,374.782288 
	C389.122406,369.489410 391.765594,364.223236 397.252869,360.395599 
	C398.923859,359.229950 401.492767,359.095306 402.186584,356.413055 
	C398.644043,353.266815 394.348053,353.402100 390.377686,354.375305 
	C373.518829,358.507690 357.116364,364.010132 341.911621,372.552551 
	C336.181274,375.772003 332.067902,380.546478 330.773468,387.214111 
	C329.525330,393.643158 330.746063,399.463654 335.668182,404.152893 
	C340.242950,408.511230 345.563171,408.521271 351.044617,406.484772 
	C368.686249,399.930725 386.369659,393.462158 403.129578,384.791626 
	C408.562744,381.980804 412.884857,378.034943 416.211304,372.787994 
	C418.216827,369.624542 418.741730,365.810944 421.169861,362.085876 
	C423.020386,365.786621 423.560577,368.845520 422.760040,372.230316 
	C420.453400,381.983368 413.422272,387.748901 405.433960,392.539215 
	C390.222198,401.661163 373.553070,407.622894 357.247498,414.366302 
	C355.870178,414.935913 353.510986,414.842712 353.898346,417.266205 
	C354.314331,419.868927 352.475464,420.819183 350.913025,421.966827 
	C347.961945,424.134583 344.761658,425.990601 341.961090,428.330627 
	C333.647186,435.277527 328.267548,443.625183 329.293274,455.124878 
	C330.525269,468.937164 345.214386,477.310364 357.687378,470.960236 
	C357.160187,470.487213 356.694366,470.042572 356.201294,469.630615 
	C338.980682,455.242828 340.742218,430.580902 360.397278,419.881744 
	C378.881866,409.819702 398.620361,402.622711 419.217560,398.031952 
	C423.397980,397.100159 427.802765,397.379303 431.004272,400.486176 
	C433.441315,402.851227 436.074677,403.825226 439.229614,404.548248 
	C445.894135,406.075623 448.780548,411.336151 446.819763,417.847687 
	C445.825226,421.150421 444.336395,424.372498 440.342957,424.525482 
	C436.610748,424.668457 435.688110,421.285400 434.377991,418.639587 
	C433.248688,416.358917 433.502655,413.405701 431.275269,411.667175 
	C428.892090,412.233459 427.760498,413.998230 426.510132,415.480438 
	C421.808197,421.054169 421.969025,429.292297 426.744354,433.614136 
	C431.416199,437.842316 438.066284,436.892273 443.416534,430.854126 
	C448.075134,425.596619 452.078888,419.778625 454.330841,413.074829 
	C458.453918,400.800659 464.054657,389.344360 472.116760,379.179169 
	C478.710144,370.865845 480.121124,361.503204 478.216919,351.351685 
	C476.836609,343.993103 475.801056,336.612549 475.470520,329.094452 
	C474.301453,302.503906 497.347076,281.248566 523.552917,286.551147 
	C547.003601,291.296295 570.184753,297.726715 592.233826,307.307190 
	C603.289978,312.111115 613.209412,311.167542 623.454834,303.946625 
M577.225525,736.339111 
	C582.234070,745.441162 585.710327,755.256714 590.142029,765.362244 
	C592.903992,759.866089 595.261230,755.102844 597.681519,750.371887 
	C606.971436,732.212402 605.750488,715.247498 592.403687,699.337036 
	C586.736450,692.581238 581.665161,685.343384 579.053345,676.694458 
	C577.795471,672.529175 574.373657,671.288696 570.469238,671.203735 
	C563.347107,671.048645 559.359131,675.651306 555.989075,681.068054 
	C552.792725,686.205688 550.866760,691.029114 554.685059,697.202881 
	C562.470398,709.790894 569.523865,722.831726 577.225525,736.339111 
M437.917145,414.642059 
	C438.747742,416.489899 438.840698,418.781128 441.160675,420.178986 
	C443.422577,417.674683 444.502136,415.105438 442.972107,412.082214 
	C441.849030,409.863007 440.017853,408.646545 437.363953,409.615295 
	C436.639282,411.191284 437.385681,412.568024 437.917145,414.642059 
z"/>
<path fill="#000000" opacity="1.000000" stroke="none" 
	d="
M395.720459,534.763916 
	C402.135681,527.319824 407.426605,519.509827 412.543518,511.436554 
	C412.449158,520.623169 406.690826,527.674316 403.247375,535.567871 
	C412.687592,538.722290 421.324310,534.315613 423.443939,525.442749 
	C425.385315,517.316040 426.302399,509.060455 425.334930,500.684784 
	C425.225464,499.737244 424.781860,498.723053 425.897186,497.691742 
	C428.227203,498.482086 428.604645,500.765686 429.207306,502.689819 
	C432.233032,512.350220 433.894592,522.121948 430.671997,532.089233 
	C429.807190,534.764099 430.972748,536.987976 431.868958,539.285461 
	C438.611938,556.572388 450.133057,570.557373 462.952606,583.537964 
	C480.379822,601.184204 500.106812,615.878418 521.645691,628.157043 
	C522.889465,628.866028 524.490784,629.211487 525.011414,630.880127 
	C517.550964,631.588318 488.719269,614.550354 466.511749,595.786682 
	C448.723236,580.756714 432.887024,564.015747 423.678070,541.656372 
	C412.686310,546.938232 401.938354,546.985291 390.944244,542.915710 
	C391.289215,539.304138 393.930573,537.486267 395.720459,534.763916 
z"/>
</svg>